# xmcd
#
# Track frame offsets:
#	150
#	10320
#	19883
#	30937
#	41260
#	51772
#	64283
#	75256
#	84572
#	95827
#	107466
#	119481
#	129468
#	142678
#	152780
#	164025
#
# Disc length: 2362 seconds
#
# Revision: 0
# Processed by: cddbd v1.4PL0 Copyright (c) Steve Scherf et al.
# Submitted via: dBpowerAMP V4.0
#
DISCID=c4093810
DTITLE=faron young - faron young
DYEAR=1900
DGENRE=Country
TTITLE0=faron young-hello wall's
TTITLE1=faron young-alone with you
TTITLE2=faron young-crying time
TTITLE3=faron young-face to the wall
TTITLE4=faron young-goin steady
TTITLE5=faron young-it's four in the morning
TTITLE6=faron young-live fast
TTITLE7=faron young-some of those
TTITLE8=faron young-unmitigated gall
TTITLE9=faron young-wine me up
TTITLE10=faron young-are you sincere
TTITLE11=faron young-as far as i'm concerned
TTITLE12=faron young-chapel in the moonlight
TTITLE13=faron young-here comes
TTITLE14=faron young-is it really over
TTITLE15=faron young-this little girl of mine
EXTD=
EXTT0=
EXTT1=
EXTT2=
EXTT3=
EXTT4=
EXTT5=
EXTT6=
EXTT7=
EXTT8=
EXTT9=
EXTT10=
EXTT11=
EXTT12=
EXTT13=
EXTT14=
EXTT15=
PLAYORDER=
